<?xml version="1.0" standalone="no"?>
<!DOCTYPE svg PUBLIC "-//W3C//DTD SVG 20010904//EN"
 "http://www.w3.org/TR/2001/REC-SVG-20010904/DTD/svg10.dtd">
<svg version="1.0" xmlns="http://www.w3.org/2000/svg"
 width="104.000000pt" height="120.000000pt" viewBox="0 0 104.000000 120.000000"
 preserveAspectRatio="xMidYMid meet">

<g transform="translate(0.000000,120.000000) scale(0.100000,-0.100000)"
fill="#000000" stroke="none">
<path d="M720 1120 c-14 -14 -28 -18 -45 -14 -40 10 -75 -19 -75 -61 0 -27 4
-35 18 -35 9 0 34 -5 56 -11 l38 -11 -52 -34 c-51 -33 -53 -34 -72 -17 -11 10
-18 13 -16 8 2 -6 -7 -20 -19 -32 -18 -18 -23 -20 -34 -7 -13 16 -55 19 -64 4
-8 -13 -45 10 -45 28 0 14 -6 10 -50 -30 -29 -26 -20 -76 22 -122 l36 -39 48
27 c35 20 56 25 77 20 20 -4 27 -3 23 5 -4 6 -16 11 -27 11 -17 0 -18 3 -8 22
l12 22 19 -24 c10 -12 21 -21 23 -18 3 3 -4 13 -15 23 -40 36 -18 95 30 80 9
-3 23 1 30 10 15 18 41 20 58 3 23 -23 13 -67 -22 -105 -29 -33 -36 -36 -50
-24 -14 12 -16 12 -10 -3 9 -23 27 -20 53 8 14 15 29 22 39 19 12 -5 14 -1 10
15 -4 12 -2 20 3 17 12 -8 86 31 93 50 11 28 7 55 -8 55 -11 0 -9 10 9 43 30
51 32 90 5 117 -26 26 -64 26 -90 0z m18 -20 c-7 -10 -14 -17 -17 -15 -4 4 18
35 25 35 2 0 -1 -9 -8 -20z m-97 -52 c-3 -21 -6 -26 -9 -15 -3 17 3 47 11 47
2 0 1 -15 -2 -32z m-213 -150 c9 -9 15 -9 24 0 7 7 22 12 35 12 34 0 31 -51
-4 -89 -27 -29 -40 -35 -76 -32 -25 1 -59 78 -46 103 11 20 49 24 67 6z"/>
<path d="M480 1082 c0 -6 5 -14 10 -17 6 -3 11 -27 12 -53 1 -36 2 -40 5 -15
3 26 7 30 17 20 8 -6 11 -19 9 -27 -3 -9 0 -8 7 3 10 15 14 16 28 5 15 -12 16
-11 3 4 -7 10 -18 15 -24 11 -6 -3 -7 -1 -3 6 5 7 17 9 29 5 26 -8 21 -1 -12
16 -19 10 -22 10 -16 -2 4 -8 2 -8 -7 2 -27 30 -58 53 -58 42z"/>
<path d="M444 1029 c-29 -32 -29 -32 -2 -15 14 10 29 24 32 32 8 20 3 18 -30
-17z"/>
<path d="M387 986 c-17 -13 -17 -14 0 -20 10 -4 14 -4 10 0 -4 4 -2 13 4 21
14 17 9 16 -14 -1z"/>
<path d="M321 958 c-14 -23 -14 -23 8 -4 22 20 25 26 13 26 -4 0 -13 -10 -21
-22z"/>
<path d="M617 969 c7 -7 15 -10 18 -7 3 3 -2 9 -12 12 -14 6 -15 5 -6 -5z"/>
<path d="M266 958 c5 -8 1 -9 -12 -4 -13 5 -16 4 -9 -3 6 -6 21 -8 34 -4 17 4
19 8 9 14 -19 12 -30 11 -22 -3z"/>
<path d="M874 921 c21 -23 26 -26 26 -11 0 5 -10 15 -22 21 -23 12 -23 12 -4
-10z"/>
<path d="M241 914 c0 -11 3 -14 6 -6 3 7 2 16 -1 19 -3 4 -6 -2 -5 -13z"/>
<path d="M267 865 c10 -13 25 -27 33 -30 8 -4 2 8 -14 24 -36 37 -43 40 -19 6z"/>
<path d="M835 870 c-3 -5 1 -10 9 -10 9 0 16 5 16 10 0 6 -4 10 -9 10 -6 0
-13 -4 -16 -10z"/>
<path d="M930 876 c0 -2 7 -7 16 -10 8 -3 12 -2 9 4 -6 10 -25 14 -25 6z"/>
<path d="M306 821 c-17 -7 -16 -9 9 -37 15 -16 23 -22 17 -13 -6 8 -9 25 -5
37 3 12 4 22 2 21 -2 0 -12 -4 -23 -8z"/>
<path d="M180 810 c0 -5 5 -10 11 -10 5 0 7 5 4 10 -3 6 -8 10 -11 10 -2 0 -4
-4 -4 -10z"/>
<path d="M956 803 c-6 -14 -5 -15 5 -6 7 7 10 15 7 18 -3 3 -9 -2 -12 -12z"/>
<path d="M792 780 c-11 -19 -10 -20 23 -20 33 0 35 2 25 20 -6 11 -16 20 -23
20 -7 0 -18 -9 -25 -20z"/>
<path d="M92 755 c0 -16 2 -22 5 -12 2 9 2 23 0 30 -3 6 -5 -1 -5 -18z"/>
<path d="M688 773 c7 -3 16 -2 19 1 4 3 -2 6 -13 5 -11 0 -14 -3 -6 -6z"/>
<path d="M953 718 c-4 -7 -6 -21 -5 -30 2 -9 -7 -22 -18 -28 -12 -6 -19 -14
-16 -17 9 -10 -15 -33 -34 -33 -10 0 -20 -6 -23 -14 -8 -21 -96 -59 -157 -69
-112 -17 -298 -18 -363 -1 -34 8 -71 15 -81 15 -28 0 -89 34 -124 69 l-31 31
-21 -21 c-12 -12 -19 -24 -16 -27 8 -8 27 8 21 18 -4 5 1 9 10 9 9 0 15 -3 13
-7 -3 -5 -11 -23 -18 -40 -9 -21 -22 -33 -35 -34 -17 -1 -18 -2 -2 -6 14 -4
16 -8 6 -19 -9 -11 -7 -14 14 -14 21 0 24 -4 20 -21 -5 -19 -4 -20 15 -10 28
15 32 14 26 -4 -7 -18 0 -19 27 -4 17 9 20 7 17 -8 -2 -14 3 -18 25 -16 15 1
27 -3 27 -9 0 -5 7 -7 15 -4 9 3 24 0 35 -6 14 -9 22 -9 34 1 13 11 16 11 16
-2 0 -11 12 -15 53 -15 28 0 58 5 65 10 8 7 12 7 12 -1 0 -14 37 -15 45 0 5 7
14 4 26 -7 18 -17 20 -16 32 0 12 16 16 17 35 5 19 -12 23 -11 36 6 12 16 17
18 27 8 17 -17 29 -16 29 2 0 17 25 20 35 5 10 -16 35 -12 35 5 0 12 4 14 20
5 15 -8 21 -6 29 9 7 13 18 17 36 14 15 -3 25 -1 25 6 0 6 14 11 30 11 30 0
41 14 18 23 -7 3 -3 6 10 6 12 1 22 6 22 11 0 6 7 10 15 10 8 0 15 7 15 15 0
8 7 15 15 15 17 0 20 16 6 24 -5 4 -12 0 -14 -6 -4 -9 -6 -7 -6 3 -1 9 -10 28
-22 43 -17 21 -19 30 -9 41 7 8 10 21 7 29 -3 7 0 19 6 25 6 6 8 11 5 11 -4 0
-10 -6 -15 -12z"/>
<path d="M82 700 c0 -14 2 -19 5 -12 2 6 2 18 0 25 -3 6 -5 1 -5 -13z"/>
<path d="M500 705 c0 -8 7 -15 15 -15 8 0 15 7 15 15 0 8 -7 15 -15 15 -8 0
-15 -7 -15 -15z"/>
<path d="M955 650 c-3 -5 -1 -10 4 -10 6 0 11 5 11 10 0 6 -2 10 -4 10 -3 0
-8 -4 -11 -10z"/>
<path d="M760 630 c0 -5 5 -10 10 -10 6 0 10 5 10 10 0 6 -4 10 -10 10 -5 0
-10 -4 -10 -10z"/>
<path d="M980 629 c0 -8 9 -20 20 -27 11 -7 20 -10 20 -7 0 3 -9 15 -20 27
-14 16 -20 18 -20 7z"/>
<path d="M480 609 c0 -5 5 -7 10 -4 6 3 10 8 10 11 0 2 -4 4 -10 4 -5 0 -10
-5 -10 -11z"/>
<path d="M718 603 c12 -2 32 -2 45 0 12 2 2 4 -23 4 -25 0 -35 -2 -22 -4z"/>
<path d="M250 570 c0 -5 7 -10 15 -10 8 0 15 5 15 10 0 6 -7 10 -15 10 -8 0
-15 -4 -15 -10z"/>
<path d="M461 354 c0 -11 3 -14 6 -6 3 7 2 16 -1 19 -3 4 -6 -2 -5 -13z"/>
<path d="M131 320 c-2 -12 72 -176 85 -192 17 -18 144 -68 172 -68 9 0 -13 11
-49 23 -101 34 -116 48 -164 150 -24 51 -44 90 -44 87z"/>
<path d="M678 63 c6 -2 18 -2 25 0 6 3 1 5 -13 5 -14 0 -19 -2 -12 -5z"/>
<path d="M423 53 c9 -2 23 -2 30 0 6 3 -1 5 -18 5 -16 0 -22 -2 -12 -5z"/>
<path d="M608 53 c6 -2 18 -2 25 0 6 3 1 5 -13 5 -14 0 -19 -2 -12 -5z"/>
</g>
</svg>
